<svg width="32" height="32" viewBox="0 0 32 32" fill="none" xmlns="http://www.w3.org/2000/svg">
<path d="M10.6761 15.9729C10.6014 17.764 11.0071 19.5424 11.8511 21.1239C12.4783 22.176 13.4418 22.9858 14.586 23.4227C15.7302 23.8597 16.9883 23.8981 18.1571 23.5319C18.9695 23.303 19.6962 22.8392 20.2459 22.1987C20.7957 21.5583 21.144 20.7697 21.2471 19.9319C21.3541 19.3319 21.3561 19.3219 21.3561 19.3219C23.0931 19.5729 25.8931 19.9799 27.6301 20.2279L27.5201 20.6679C27.1269 22.6767 26.1934 24.5402 24.8201 26.0579C23.3715 27.5139 21.4876 28.4576 19.4541 28.7459C16.674 29.2806 13.7985 28.9961 11.1771 27.9269C9.82021 27.3665 8.60104 26.5183 7.60369 25.441C6.60633 24.3637 5.85451 23.0829 5.40009 21.6869C4.01475 17.9948 4.0215 13.9245 5.41909 10.2369C6.07864 8.32504 7.27444 6.64331 8.86374 5.3925C10.453 4.1417 12.3687 3.37466 14.3821 3.18295C16.6152 2.79939 18.9092 2.99038 21.0481 3.73795C22.5756 4.27285 23.9425 5.18635 25.021 6.39305C26.0995 7.59975 26.8544 9.06023 27.2151 10.6379C27.3091 10.9899 27.3291 11.0549 27.3291 11.0549C25.3971 11.4059 23.0101 11.8549 21.0911 12.2699C20.7291 10.3549 19.8261 8.84195 17.8911 8.36995C17.2224 8.16261 16.5191 8.09077 15.8223 8.15863C15.1255 8.22649 14.4493 8.43268 13.8331 8.76513C13.217 9.09759 12.6734 9.54962 12.2342 10.0948C11.795 10.6399 11.4689 11.2672 11.2751 11.9399C11.1128 12.4099 10.9842 12.8908 10.8901 13.3789C10.7273 14.2336 10.6556 15.1031 10.6761 15.9729Z" fill="#005F91"/>
</svg>
