<svg width="80" height="80" viewBox="0 0 80 80" fill="none" xmlns="http://www.w3.org/2000/svg">
<path d="M32 34C32 37.3137 29.3137 40 26 40C22.6863 40 20 37.3137 20 34C20 30.6863 22.6863 28 26 28C29.3137 28 32 30.6863 32 34Z" fill="#F8F3D9"/>
<path d="M16 46.7952C16 44.6992 17.6992 43 19.7952 43H32.2048C34.3008 43 36 44.6992 36 46.7952C36 50.184 33.6935 53.138 30.4058 53.96L30.1697 54.0192C27.432 54.7036 24.568 54.7036 21.8303 54.0192L21.5942 53.96C18.3064 53.138 16 50.184 16 46.7952Z" fill="#F8F3D9"/>
<path d="M46 32C44.8956 32 44 32.8954 44 34C44 35.1046 44.8956 36 46 36H58C59.1044 36 60 35.1046 60 34C60 32.8954 59.1044 32 58 32H46Z" fill="#F8F3D9"/>
<path d="M46 44C44.8956 44 44 44.8956 44 46C44 47.1044 44.8956 48 46 48H58C59.1044 48 60 47.1044 60 46C60 44.8956 59.1044 44 58 44H46Z" fill="#F8F3D9"/>
<path d="M8 23C8 19.134 11.134 16 15 16H65C68.866 16 72 19.134 72 23V57C72 60.866 68.866 64 65 64H15C11.134 64 8 60.866 8 57V23ZM15 20C13.3432 20 12 21.3432 12 23V57C12 58.6568 13.3432 60 15 60H65C66.6568 60 68 58.6568 68 57V23C68 21.3432 66.6568 20 65 20H15Z" fill="#F8F3D9"/>
</svg>
