<svg width="32" height="32" viewBox="0 0 32 32" fill="none" xmlns="http://www.w3.org/2000/svg">
<path d="M29 29H3C1.346 29 0 27.4705 0 25.5909V7.40909C0 5.52955 1.346 4 3 4H29C30.654 4 32 5.52955 32 7.40909V25.5909C32 27.4705 30.654 29 29 29ZM3 26.7273H29C29.551 26.7273 30 26.2182 30 25.5909V7.76932L16.651 20.7716C16.463 20.9545 16.232 21.0455 16 21.0455C15.768 21.0455 15.537 20.9545 15.349 20.7716L2 7.76932V25.5909C2 26.2182 2.449 26.7273 3 26.7273ZM28.464 6.27273H3.536L16 18.4125L28.464 6.27273Z" fill="#F8F3D9"/>
</svg>
