<svg width="32" height="32" viewBox="0 0 32 32" fill="none" xmlns="http://www.w3.org/2000/svg">
<path d="M15.885 2.09989C8.785 2.09989 9.234 5.16989 9.234 5.16989V8.35989H15.986V9.35989H6.545C6.545 9.35989 2 8.79989 2 16.0049C2 23.2099 6.013 22.9169 6.013 22.9169H8.33V19.5559C8.33 19.5559 8.2 15.5429 12.23 15.5429H18.992C18.992 15.5429 22.764 15.6029 22.764 11.8909V5.79989C22.764 5.79989 23.336 2.08789 15.922 2.08789L15.885 2.09989ZM12.153 4.23689C12.393 4.23083 12.6295 4.2961 12.8324 4.42443C13.0354 4.55275 13.1957 4.73838 13.2932 4.95784C13.3906 5.17729 13.4208 5.42072 13.3799 5.65732C13.339 5.89393 13.2288 6.11309 13.0633 6.28709C12.8979 6.46109 12.6845 6.58212 12.4503 6.63486C12.216 6.6876 11.9714 6.66969 11.7473 6.58339C11.5232 6.4971 11.3298 6.34629 11.1914 6.15004C11.0531 5.9538 10.976 5.72093 10.97 5.48089V5.46089C10.97 5.30147 11.0014 5.1436 11.0624 4.99631C11.1234 4.84902 11.2128 4.71519 11.3256 4.60246C11.4383 4.48973 11.5721 4.40031 11.7194 4.3393C11.8667 4.27829 12.0246 4.24689 12.184 4.24689L12.153 4.23689Z" fill="url(#paint0_linear_502_605)"/>
<path d="M16.0849 29.9101C23.1849 29.9101 22.7359 26.8301 22.7359 26.8301V23.6501H15.9849V22.6501H25.4549C25.4549 22.6501 29.9999 23.1581 29.9999 15.9951C29.9999 8.83211 25.9869 9.08311 25.9869 9.08311H23.6399V12.4001C23.6399 12.4001 23.7699 16.4131 19.7399 16.4131H12.9749C12.9749 16.4131 9.19992 16.3561 9.19992 20.0681V26.2001C9.19992 26.2001 8.62792 29.9121 16.0419 29.9121H16.0819L16.0849 29.9101ZM19.8169 27.7631C19.5769 27.7692 19.3404 27.7039 19.1375 27.5756C18.9345 27.4472 18.7742 27.2616 18.6768 27.0422C18.5793 26.8227 18.5491 26.5793 18.59 26.3427C18.631 26.1061 18.7411 25.8869 18.9066 25.7129C19.072 25.5389 19.2854 25.4179 19.5196 25.3651C19.7539 25.3124 19.9985 25.3303 20.2226 25.4166C20.4467 25.5029 20.6401 25.6537 20.7785 25.85C20.9168 26.0462 20.9939 26.2791 20.9999 26.5191V26.5491C20.9999 26.8711 20.872 27.1799 20.6443 27.4075C20.4167 27.6352 20.1079 27.7631 19.7859 27.7631H19.8169Z" fill="url(#paint1_linear_502_605)"/>
<defs>
<linearGradient id="paint0_linear_502_605" x1="4.76716" y1="4.82279" x2="18.0538" y2="18.0794" gradientUnits="userSpaceOnUse">
<stop stop-color="#387EB8"/>
<stop offset="1" stop-color="#366994"/>
</linearGradient>
<linearGradient id="paint1_linear_502_605" x1="12.6274" y1="13.4587" x2="27.8076" y2="26.7113" gradientUnits="userSpaceOnUse">
<stop stop-color="#FFE052"/>
<stop offset="1" stop-color="#FFC331"/>
</linearGradient>
</defs>
</svg>
