<svg width="72" height="80" viewBox="0 0 72 80" fill="none" xmlns="http://www.w3.org/2000/svg">
<path d="M9.33984 72.3C8.20651 72.3 7.1454 72.1111 6.15651 71.7333C5.17873 71.3444 4.31762 70.8 3.57318 70.1C2.83984 69.4 2.26762 68.5778 1.85651 67.6333C1.4454 66.6889 1.23984 65.6556 1.23984 64.5333C1.23984 63.4111 1.4454 62.3778 1.85651 61.4333C2.26762 60.4778 2.83984 59.65 3.57318 58.95C4.31762 58.2389 5.17318 57.6889 6.13984 57.3C7.11762 56.9 8.17318 56.7 9.30651 56.7C10.3287 56.7 11.2843 56.8611 12.1732 57.1833C13.0621 57.5056 13.851 57.9611 14.5398 58.55L13.6898 61.9833C13.2676 61.2944 12.6843 60.7167 11.9398 60.25C11.2065 59.7722 10.3287 59.5333 9.30651 59.5333C8.36207 59.5333 7.51762 59.75 6.77318 60.1833C6.02873 60.6167 5.43984 61.2111 5.00651 61.9667C4.58429 62.7222 4.37318 63.5778 4.37318 64.5333C4.37318 65.5111 4.58429 66.3778 5.00651 67.1333C5.43984 67.8778 6.02873 68.4667 6.77318 68.9C7.51762 69.3222 8.35651 69.5333 9.28984 69.5333C9.7454 69.5333 10.1676 69.4889 10.5565 69.4C10.9454 69.3111 11.2954 69.1778 11.6065 69V66.1H8.55651V63.6H14.3398V70.8833C13.651 71.3278 12.8787 71.6778 12.0232 71.9333C11.1787 72.1778 10.2843 72.3 9.33984 72.3ZM18.0013 72V62H20.9013V72H18.0013ZM19.4513 60.55C19.018 60.55 18.6513 60.4 18.3513 60.1C18.0513 59.8 17.9013 59.4333 17.9013 59C17.9013 58.5556 18.0513 58.1889 18.3513 57.9C18.6513 57.6 19.018 57.45 19.4513 57.45C19.8957 57.45 20.2624 57.6 20.5513 57.9C20.8513 58.1889 21.0013 58.5556 21.0013 59C21.0013 59.4333 20.8513 59.8 20.5513 60.1C20.2624 60.4 19.8957 60.55 19.4513 60.55ZM25.4909 72V64.3H23.6242V62H25.5409V58.6667H28.3409V62H30.3242V64.3H28.3909V72H25.4909ZM33.5242 72V57H36.4242V61.8H40.7576V57H43.6576V72H40.7576V64.5H36.4242V72H33.5242ZM51.4268 72.3333C50.7268 72.3333 50.0657 72.1667 49.4435 71.8333C48.8213 71.4889 48.3157 70.9944 47.9268 70.35C47.549 69.6944 47.3602 68.9056 47.3602 67.9833V62H50.2602V67.6C50.2602 68.1556 50.4268 68.65 50.7602 69.0833C51.1046 69.5167 51.5824 69.7333 52.1935 69.7333C52.6935 69.7333 53.1379 69.5556 53.5268 69.2C53.9268 68.8333 54.1268 68.3111 54.1268 67.6333V62H57.0268V72H54.3935V70.95C54.0379 71.3944 53.599 71.7389 53.0768 71.9833C52.5657 72.2167 52.0157 72.3333 51.4268 72.3333ZM66.0487 72.2667C65.4154 72.2667 64.832 72.1556 64.2987 71.9333C63.7765 71.7111 63.3209 71.4056 62.932 71.0167V72H60.432V56H63.332V62.6333C63.6987 62.3444 64.1098 62.1222 64.5654 61.9667C65.0209 61.8111 65.5154 61.7333 66.0487 61.7333C66.982 61.7333 67.8265 61.9722 68.582 62.45C69.3376 62.9167 69.9376 63.55 70.382 64.35C70.8376 65.15 71.0654 66.0333 71.0654 67C71.0654 67.9667 70.8376 68.85 70.382 69.65C69.9376 70.4389 69.3376 71.0722 68.582 71.55C67.8265 72.0278 66.982 72.2667 66.0487 72.2667ZM65.7154 69.7167C66.2043 69.7167 66.6487 69.5944 67.0487 69.35C67.4487 69.1056 67.7654 68.7778 67.9987 68.3667C68.2431 67.9556 68.3654 67.5 68.3654 67C68.3654 66.5 68.2431 66.0444 67.9987 65.6333C67.7654 65.2222 67.4487 64.8944 67.0487 64.65C66.6487 64.4056 66.2043 64.2833 65.7154 64.2833C65.2265 64.2833 64.782 64.4056 64.382 64.65C63.982 64.8944 63.6598 65.2222 63.4154 65.6333C63.182 66.0444 63.0654 66.5 63.0654 67C63.0654 67.5 63.182 67.9556 63.4154 68.3667C63.6598 68.7778 63.982 69.1056 64.382 69.35C64.782 69.5944 65.2265 69.7167 65.7154 69.7167Z" fill="black"/>
<g clip-path="url(#clip0_512_14)">
<path fill-rule="evenodd" clip-rule="evenodd" d="M35.9999 3C31.0143 3.00067 26.1916 4.77507 22.3945 8.00579C18.5973 11.2365 16.0734 15.7128 15.2743 20.6339C14.4751 25.555 15.4529 30.5999 18.0326 34.8662C20.6123 39.1325 24.6257 42.3418 29.3549 43.92C30.4049 44.115 30.8549 43.47 30.8549 42.915C30.8549 42.36 30.8549 41.1 30.8549 39.345C25.0199 40.605 23.7899 36.525 23.7899 36.525C23.3796 35.2393 22.516 34.1464 21.3599 33.45C19.4549 32.16 21.5099 32.175 21.5099 32.175C22.1753 32.269 22.8104 32.5138 23.3668 32.8908C23.9231 33.2677 24.3859 33.7669 24.7199 34.35C25.3009 35.3921 26.272 36.1608 27.4197 36.4871C28.5673 36.8134 29.7975 36.6706 30.8399 36.09C30.9246 35.0257 31.3938 34.0286 32.1599 33.285C27.5099 32.745 22.6049 30.945 22.6049 22.905C22.5709 20.8168 23.3447 18.7962 24.7649 17.265C24.1221 15.4563 24.1973 13.47 24.9749 11.715C24.9749 11.715 26.7299 11.145 30.7499 13.86C34.1871 12.9224 37.8127 12.9224 41.2499 13.86C45.2549 11.145 47.0099 11.715 47.0099 11.715C47.7876 13.47 47.8627 15.4563 47.2199 17.265C48.6401 18.7962 49.4139 20.8168 49.3799 22.905C49.3799 30.975 44.4749 32.745 39.7949 33.27C40.2962 33.7781 40.6828 34.3878 40.9286 35.058C41.1744 35.7282 41.2738 36.4432 41.2199 37.155C41.2199 39.96 41.2199 42.225 41.2199 42.915C41.2199 43.605 41.5949 44.13 42.7199 43.92C47.4553 42.3398 51.4729 39.1243 54.0522 34.8502C56.6315 30.5761 57.6039 25.5229 56.7949 20.5968C55.9859 15.6707 53.4485 11.1939 49.6377 7.96916C45.8269 4.74444 40.992 2.98276 35.9999 3Z" fill="black"/>
</g>
<defs>
<clipPath id="clip0_512_14">
<rect width="48" height="48" fill="white" transform="translate(12)"/>
</clipPath>
</defs>
</svg>
