<svg xmlns="http://www.w3.org/2000/svg" width="531" height="376" viewBox="0 0 531 376">
<g>
<path d="M 66.77 326.25 L 66.50 343.50 L 59.24 343.79 C53.76,344.02 51.84,343.75 51.44,342.70 C51.15,341.94 50.82,321.89 50.70,298.16 L 50.50 255.00 L 57.63 255.00 C65.34,255.00 65.95,255.51 65.99,261.88 L 66.00 264.27 L 68.02 261.70 C69.14,260.28 72.62,257.86 75.77,256.32 C80.58,253.97 82.72,253.53 89.11,253.58 C95.64,253.63 97.47,254.07 102.11,256.66 C116.07,264.45 121.19,285.02 113.21,301.23 C108.07,311.66 99.71,317.00 88.50,317.00 C82.28,317.00 76.23,315.04 71.64,311.54 C69.81,310.14 68.03,309.00 67.68,309.00 C67.33,309.00 66.92,316.76 66.77,326.25 ZM 314.19 315.82 C298.96,320.39 284.30,312.79 278.30,297.21 C272.32,281.68 278.84,262.93 292.60,256.06 C301.82,251.45 317.68,253.41 323.40,259.85 C324.45,261.03 325.71,262.00 326.20,262.00 C326.70,262.00 326.97,255.16 326.80,246.50 L 326.50 231.00 L 334.76 231.00 L 343.02 231.00 L 342.76 273.25 L 342.50 315.50 L 328.50 315.50 L 328.19 311.25 C328.02,308.91 327.64,307.00 327.35,307.00 C327.05,307.00 324.85,308.72 322.46,310.82 C320.07,312.93 316.35,315.18 314.19,315.82 ZM 391.21 315.45 C385.57,317.37 375.59,317.40 371.24,315.51 C359.66,310.47 353.04,299.27 353.01,284.65 C352.99,272.20 358.58,261.72 367.99,256.60 C372.38,254.21 374.57,253.69 380.41,253.62 C388.81,253.53 393.53,254.99 399.46,259.52 C404.12,263.08 405.00,262.75 405.00,257.42 C405.00,255.08 405.23,255.00 412.51,255.00 L 420.03 255.00 L 419.76 285.25 L 419.50 315.50 L 412.25 315.79 L 405.00 316.09 L 405.00 313.13 C405.00,307.15 404.15,306.71 399.78,310.46 C397.57,312.35 393.71,314.59 391.21,315.45 ZM 168.90 313.89 C154.41,321.13 138.53,315.80 131.12,301.22 C126.30,291.73 126.10,279.70 130.61,269.94 C133.77,263.11 137.14,259.52 143.50,256.22 C153.21,251.18 167.53,253.04 175.30,260.36 C176.84,261.81 178.30,263.00 178.55,263.00 C178.80,263.00 179.00,261.20 179.00,259.00 L 179.00 255.00 L 194.03 255.00 L 193.50 315.50 L 179.50 315.50 L 179.19 311.25 C178.86,306.60 178.11,305.99 176.30,308.89 C175.65,309.93 172.32,312.18 168.90,313.89 ZM 321.01 33.00 L 320.50 165.50 L 311.95 165.79 C307.25,165.94 303.09,165.76 302.70,165.37 C302.32,164.98 302.00,135.04 302.00,98.83 L 302.00 33.00 ZM 230.01 77.00 L 229.50 208.50 L 220.25 208.79 L 211.00 209.08 L 211.00 77.00 ZM 224.04 275.90 L 223.50 315.50 L 215.75 315.79 L 208.00 316.08 L 208.00 255.00 L 221.93 255.00 L 222.59 259.94 L 223.24 264.89 L 226.49 261.45 C231.49,256.14 238.17,253.53 246.51,253.62 C254.95,253.71 258.91,255.51 262.96,261.11 C267.24,267.02 268.08,273.00 267.77,295.51 L 267.50 315.50 L 259.75 315.79 L 252.00 316.08 L 251.97 300.29 C251.93,281.66 250.82,271.56 248.52,269.02 C247.61,268.02 245.32,266.91 243.43,266.55 C237.48,265.44 233.02,266.93 228.35,271.60 ZM 464.50 316.46 C456.94,318.43 453.12,318.32 444.66,315.91 C436.78,313.66 432.00,311.40 432.00,309.92 C432.00,308.57 434.16,300.00 434.50,300.00 C434.64,300.00 437.38,301.20 440.57,302.66 C444.60,304.50 448.57,305.44 453.45,305.71 C461.62,306.16 464.98,304.85 466.46,300.62 C467.33,298.16 467.12,297.50 464.83,295.53 C463.37,294.28 458.91,292.47 454.85,291.49 C440.45,288.02 433.70,281.64 433.79,271.61 C433.88,260.53 440.17,254.79 453.78,253.37 C462.96,252.41 478.76,256.56 477.59,259.63 C477.33,260.30 476.82,262.46 476.45,264.43 C475.69,268.45 475.32,268.58 470.46,266.55 C465.93,264.66 456.28,263.69 452.58,264.76 C448.90,265.82 447.52,267.96 448.36,271.30 C449.08,274.17 454.53,277.13 461.49,278.43 C469.16,279.87 476.81,284.84 479.60,290.20 C482.90,296.56 479.92,307.67 473.61,312.48 C471.86,313.82 467.76,315.61 464.50,316.46 ZM 75.50 303.14 C82.45,307.43 92.59,304.69 97.68,297.15 C105.39,285.70 99.11,267.35 86.78,265.35 C75.22,263.48 66.01,271.99 66.07,284.50 C66.10,293.21 69.14,299.21 75.50,303.14 ZM 155.00 304.18 C155.82,304.55 158.76,304.89 161.52,304.93 C170.11,305.05 176.96,298.16 178.66,287.71 C179.54,282.31 176.41,273.12 172.40,269.34 C166.40,263.68 156.76,263.64 150.37,269.24 C145.36,273.65 144.00,276.93 144.00,284.63 C144.00,294.55 147.51,300.78 155.00,304.18 ZM 378.50 303.14 C382.15,305.39 389.95,305.59 393.93,303.54 C405.58,297.51 407.45,278.59 397.31,269.32 C389.21,261.92 375.60,265.06 370.90,275.42 C367.57,282.74 368.91,293.86 373.79,299.36 C374.73,300.42 376.85,302.12 378.50,303.14 ZM 300.74 302.47 C308.46,307.71 320.44,304.85 324.62,296.77 C326.83,292.50 327.56,282.26 326.01,277.39 C322.39,266.07 309.79,261.84 299.88,268.61 C289.64,275.62 290.13,295.26 300.74,302.47 ZM 261.00 63.44 C261.00,74.13 260.66,83.02 260.25,83.19 C259.84,83.36 255.56,83.37 250.75,83.21 L 242.00 82.92 L 242.00 44.00 L 261.00 44.00 ZM 291.00 77.00 L 291.00 116.00 L 272.00 116.00 L 272.00 77.00 ZM 291.00 159.00 L 291.00 198.00 L 272.00 198.00 L 272.00 159.00 ZM 260.77 145.25 L 260.50 164.50 L 251.25 164.79 L 242.00 165.08 L 242.00 126.00 L 261.04 126.00 Z" fill="rgb(17,6,79)"/>
<path d="M 290.79 137.25 L 290.50 146.50 L 281.95 146.79 C277.25,146.94 273.09,146.76 272.70,146.37 C272.32,145.98 272.00,141.69 272.00,136.83 L 272.00 128.00 L 291.08 128.00 Z" fill="rgb(131,61,128)"/>
<path d="M 260.00 95.00 L 260.00 114.00 L 251.17 114.00 C246.31,114.00 242.03,113.70 241.67,113.33 C241.30,112.97 241.00,108.69 241.00,103.83 L 241.00 95.00 Z" fill="rgb(202,182,140)"/>
<path d="M 0.00 188.00 L 0.00 0.00 L 265.50 0.00 L 531.00 0.00 L 531.00 188.00 L 531.00 376.00 L 265.50 376.00 L 0.00 376.00 L 0.00 188.00 ZM 66.77 326.25 C66.92,316.76 67.33,309.00 67.68,309.00 C68.03,309.00 69.81,310.14 71.64,311.54 C76.23,315.04 82.28,317.00 88.50,317.00 C99.71,317.00 108.07,311.66 113.21,301.23 C121.19,285.02 116.07,264.45 102.11,256.66 C97.47,254.07 95.64,253.63 89.11,253.58 C82.72,253.53 80.58,253.97 75.77,256.32 C72.62,257.86 69.14,260.28 68.02,261.70 L 66.00 264.27 L 65.99 261.88 C65.95,255.51 65.34,255.00 57.63,255.00 L 50.50 255.00 L 50.70 298.16 C50.82,321.89 51.15,341.94 51.44,342.70 C51.84,343.75 53.76,344.02 59.24,343.79 L 66.50 343.50 L 66.77 326.25 ZM 464.50 316.46 C467.76,315.61 471.86,313.82 473.61,312.48 C479.92,307.67 482.90,296.56 479.60,290.20 C476.81,284.84 469.16,279.87 461.49,278.43 C454.53,277.13 449.08,274.17 448.36,271.30 C447.52,267.96 448.90,265.82 452.58,264.76 C456.28,263.69 465.93,264.66 470.46,266.55 C475.32,268.58 475.69,268.45 476.45,264.43 C476.82,262.46 477.33,260.30 477.59,259.63 C478.76,256.56 462.96,252.41 453.78,253.37 C440.17,254.79 433.88,260.53 433.79,271.61 C433.70,281.64 440.45,288.02 454.85,291.49 C458.91,292.47 463.37,294.28 464.83,295.53 C467.12,297.50 467.33,298.16 466.46,300.62 C464.98,304.85 461.62,306.16 453.45,305.71 C448.57,305.44 444.60,304.50 440.57,302.66 C437.38,301.20 434.64,300.00 434.50,300.00 C434.16,300.00 432.00,308.57 432.00,309.92 C432.00,311.40 436.78,313.66 444.66,315.91 C453.12,318.32 456.94,318.43 464.50,316.46 ZM 168.90 313.89 C172.32,312.18 175.65,309.93 176.30,308.89 C178.11,305.99 178.86,306.60 179.19,311.25 L 179.50 315.50 L 186.50 315.50 L 193.50 315.50 L 193.76 285.25 L 194.03 255.00 L 186.51 255.00 L 179.00 255.00 L 179.00 259.00 C179.00,261.20 178.80,263.00 178.55,263.00 C178.30,263.00 176.84,261.81 175.30,260.36 C167.53,253.04 153.21,251.18 143.50,256.22 C137.14,259.52 133.77,263.11 130.61,269.94 C126.10,279.70 126.30,291.73 131.12,301.22 C138.53,315.80 154.41,321.13 168.90,313.89 ZM 314.19 315.82 C316.35,315.18 320.07,312.93 322.46,310.82 C324.85,308.72 327.05,307.00 327.35,307.00 C327.64,307.00 328.02,308.91 328.19,311.25 L 328.50 315.50 L 335.50 315.50 L 342.50 315.50 L 342.76 273.25 L 343.02 231.00 L 334.76 231.00 L 326.50 231.00 L 326.80 246.50 C326.97,255.16 326.70,262.00 326.20,262.00 C325.71,262.00 324.45,261.03 323.40,259.85 C317.68,253.41 301.82,251.45 292.60,256.06 C278.84,262.93 272.32,281.68 278.30,297.21 C284.30,312.79 298.96,320.39 314.19,315.82 ZM 391.21 315.45 C393.71,314.59 397.57,312.35 399.78,310.46 C404.15,306.71 405.00,307.15 405.00,313.13 L 405.00 316.09 L 412.25 315.79 L 419.50 315.50 L 419.76 285.25 L 420.03 255.00 L 412.51 255.00 C405.23,255.00 405.00,255.08 405.00,257.42 C405.00,262.75 404.12,263.08 399.46,259.52 C393.53,254.99 388.81,253.53 380.41,253.62 C374.57,253.69 372.38,254.21 367.99,256.60 C358.58,261.72 352.99,272.20 353.01,284.65 C353.04,299.27 359.66,310.47 371.24,315.51 C375.59,317.40 385.57,317.37 391.21,315.45 ZM 223.77 295.70 L 224.04 275.90 L 228.35 271.60 C233.02,266.93 237.48,265.44 243.43,266.55 C245.32,266.91 247.61,268.02 248.52,269.02 C250.82,271.56 251.93,281.66 251.97,300.29 L 252.00 316.08 L 259.75 315.79 L 267.50 315.50 L 267.77 295.51 C268.08,273.00 267.24,267.02 262.96,261.11 C258.91,255.51 254.95,253.71 246.51,253.62 C238.17,253.53 231.49,256.14 226.49,261.45 L 223.24 264.89 L 222.59 259.94 L 221.93 255.00 L 214.97 255.00 L 208.00 255.00 L 208.00 285.54 L 208.00 316.08 L 215.75 315.79 L 223.50 315.50 L 223.77 295.70 ZM 229.76 142.75 L 230.01 77.00 L 220.51 77.00 L 211.00 77.00 L 211.00 143.04 L 211.00 209.08 L 220.25 208.79 L 229.50 208.50 L 229.76 142.75 ZM 291.00 178.50 L 291.00 159.00 L 281.50 159.00 L 272.00 159.00 L 272.00 178.50 L 272.00 198.00 L 281.50 198.00 L 291.00 198.00 L 291.00 178.50 ZM 320.76 99.25 L 321.01 33.00 L 311.51 33.00 L 302.00 33.00 L 302.00 98.83 C302.00,135.04 302.32,164.98 302.70,165.37 C303.09,165.76 307.25,165.94 311.95,165.79 L 320.50 165.50 L 320.76 99.25 ZM 260.77 145.25 L 261.04 126.00 L 251.52 126.00 L 242.00 126.00 L 242.00 145.54 L 242.00 165.08 L 251.25 164.79 L 260.50 164.50 L 260.77 145.25 ZM 290.79 137.25 L 291.08 128.00 L 281.54 128.00 L 272.00 128.00 L 272.00 136.83 C272.00,141.69 272.32,145.98 272.70,146.37 C273.09,146.76 277.25,146.94 281.95,146.79 L 290.50 146.50 L 290.79 137.25 ZM 291.00 96.50 L 291.00 77.00 L 281.50 77.00 L 272.00 77.00 L 272.00 96.50 L 272.00 116.00 L 281.50 116.00 L 291.00 116.00 L 291.00 96.50 ZM 260.00 104.50 L 260.00 95.00 L 250.50 95.00 L 241.00 95.00 L 241.00 103.83 C241.00,108.69 241.30,112.97 241.67,113.33 C242.03,113.70 246.31,114.00 251.17,114.00 L 260.00 114.00 L 260.00 104.50 ZM 261.00 63.44 L 261.00 44.00 L 251.50 44.00 L 242.00 44.00 L 242.00 63.46 L 242.00 82.92 L 250.75 83.21 C255.56,83.37 259.84,83.36 260.25,83.19 C260.66,83.02 261.00,74.13 261.00,63.44 ZM 75.50 303.14 C69.14,299.21 66.10,293.21 66.07,284.50 C66.01,271.99 75.22,263.48 86.78,265.35 C99.11,267.35 105.39,285.70 97.68,297.15 C92.59,304.69 82.45,307.43 75.50,303.14 ZM 155.00 304.18 C147.51,300.78 144.00,294.55 144.00,284.63 C144.00,276.93 145.36,273.65 150.37,269.24 C156.76,263.64 166.40,263.68 172.40,269.34 C176.41,273.12 179.54,282.31 178.66,287.71 C176.96,298.16 170.11,305.05 161.52,304.93 C158.76,304.89 155.82,304.55 155.00,304.18 ZM 300.74 302.47 C290.13,295.26 289.64,275.62 299.88,268.61 C309.79,261.84 322.39,266.07 326.01,277.39 C327.56,282.26 326.83,292.50 324.62,296.77 C320.44,304.85 308.46,307.71 300.74,302.47 ZM 378.50 303.14 C376.85,302.12 374.73,300.42 373.79,299.36 C368.91,293.86 367.57,282.74 370.90,275.42 C375.60,265.06 389.21,261.92 397.31,269.32 C407.45,278.59 405.58,297.51 393.93,303.54 C389.95,305.59 382.15,305.39 378.50,303.14 Z" fill="rgb(254,254,254)"/>
</g>
</svg>