<svg width="32" height="32" viewBox="0 0 32 32" fill="none" xmlns="http://www.w3.org/2000/svg">
<path d="M22.84 18.98C22.46 18.8 20.64 17.9 20.3 17.76C19.96 17.62 19.72 17.58 19.46 17.96C19.2 18.34 18.5 19.16 18.28 19.42C18.06 19.68 17.86 19.7 17.48 19.42C16.3885 18.982 15.3805 18.3596 14.5 17.58C13.7029 16.8295 13.028 15.959 12.5 15C12.28 14.64 12.5 14.44 12.66 14.24C12.82 14.04 13.02 13.82 13.22 13.6C13.3662 13.4097 13.4872 13.2013 13.58 12.98C13.6296 12.877 13.6553 12.7643 13.6553 12.65C13.6553 12.5357 13.6296 12.4229 13.58 12.32C13.58 12.14 12.74 10.32 12.42 9.57998C12.1 8.83998 11.82 8.93998 11.6 8.93998H10.8C10.4189 8.95484 10.0592 9.12027 9.79996 9.39998C9.38148 9.79933 9.05 10.2808 8.8263 10.8143C8.60259 11.3477 8.49149 11.9216 8.49996 12.5C8.60226 13.9199 9.12438 15.2774 9.99996 16.4C11.6067 18.7869 13.8049 20.7163 16.38 22C17.26 22.38 17.94 22.6 18.48 22.78C19.2383 23.0092 20.0398 23.0571 20.82 22.92C21.3382 22.8149 21.8292 22.6044 22.2627 22.3016C22.6962 21.9989 23.0629 21.6103 23.34 21.16C23.5706 20.6039 23.6466 19.9958 23.56 19.4C23.46 19.26 23.22 19.16 22.84 18.98Z" fill="#F8F3D9"/>
<path d="M26.5799 5.35999C25.1968 3.96376 23.548 2.85864 21.7309 2.10982C19.9139 1.361 17.9652 0.983636 15.9999 0.999991C13.3965 1.01361 10.8422 1.71006 8.59222 3.01975C6.34219 4.32945 4.47516 6.20657 3.17761 8.46362C1.88005 10.7207 1.19739 13.2787 1.1978 15.8821C1.19821 18.4856 1.88167 21.0433 3.17993 23.3L1.17993 31L9.05993 29C11.2384 30.1854 13.6798 30.8044 16.1599 30.8H15.9999C18.9558 30.8193 21.8504 29.9577 24.3146 28.3253C26.7788 26.6929 28.7011 24.3635 29.8361 21.6342C30.9712 18.9049 31.2676 15.8994 30.6877 13.0009C30.1078 10.1025 28.6777 7.44244 26.5799 5.35999ZM15.9999 28.24C13.781 28.2418 11.6034 27.6403 9.69993 26.5L9.25993 26.24L4.57993 27.46L5.81993 22.9L5.53993 22.44C3.94264 19.8677 3.34515 16.7985 3.86083 13.8148C4.3765 10.8312 5.96946 8.14056 8.33746 6.25356C10.7055 4.36656 13.6838 3.41443 16.7073 3.57783C19.7307 3.74122 22.5891 5.00878 24.7399 7.13999C25.893 8.28378 26.8069 9.64561 27.4284 11.1461C28.0499 12.6467 28.3666 14.2559 28.3599 15.88C28.3546 19.1564 27.0507 22.2972 24.7339 24.614C22.4171 26.9308 19.2764 28.2347 15.9999 28.24Z" fill="#F8F3D9"/>
</svg>
