<svg width="32" height="32" viewBox="0 0 32 32" fill="none" xmlns="http://www.w3.org/2000/svg">
<path d="M29 10.2319C29.0096 9.79597 28.8996 9.36573 28.682 8.98789C28.4536 8.61692 28.1306 8.31351 27.746 8.10889C24.2833 6.19689 20.819 4.28589 17.353 2.37589C16.9351 2.12449 16.4558 1.99367 15.9681 1.9979C15.4804 2.00214 15.0034 2.14127 14.59 2.39989C13.212 3.17889 6.31498 6.96489 4.25898 8.10589C3.86773 8.30242 3.54112 8.60713 3.31794 8.98382C3.09477 9.3605 2.98441 9.79333 2.99998 10.2309V21.7699C2.98988 22.196 3.09343 22.6171 3.29998 22.9899C3.52964 23.3715 3.85962 23.6828 4.25398 23.8899C6.30998 25.0309 13.208 28.8169 14.586 29.5959C14.9993 29.8548 15.4761 29.9943 15.9638 29.9989C16.4515 30.0035 16.9309 29.873 17.349 29.6219C20.809 27.7079 24.271 25.7969 27.735 23.8889C28.1294 23.6816 28.4596 23.3703 28.69 22.9889C28.8965 22.6161 29.0001 22.195 28.99 21.7689V10.2319" fill="#659AD2"/>
<path d="M28.549 23.1709C28.6013 23.113 28.6504 23.0522 28.696 22.9889C28.9026 22.6161 29.0061 22.195 28.996 21.7689V10.2319C29.0056 9.79595 28.8956 9.36572 28.678 8.98788C28.642 8.92888 28.589 8.88288 28.548 8.82788L16 15.9999L28.549 23.1709Z" fill="#00599C"/>
<path d="M28.5489 23.171L15.9999 16L3.45093 23.171C3.66313 23.4687 3.93963 23.7148 4.25993 23.891C6.31593 25.032 13.2139 28.818 14.5919 29.597C15.0052 29.8559 15.4821 29.9954 15.9698 30C16.4574 30.0046 16.9368 29.8741 17.3549 29.623C20.8149 27.709 24.2769 25.798 27.7409 23.89C28.0609 23.7141 28.337 23.4683 28.5489 23.171Z" fill="#004482"/>
<path d="M19.6 18.0201C19.1545 18.8123 18.4597 19.435 17.6236 19.7913C16.7875 20.1476 15.8571 20.2176 14.9771 19.9902C14.0971 19.7629 13.317 19.251 12.7581 18.5343C12.1993 17.8176 11.893 16.9363 11.887 16.0275C11.881 15.1186 12.1756 14.2333 12.725 13.5093C13.2743 12.7853 14.0476 12.2632 14.9245 12.0242C15.8013 11.7853 16.7326 11.8429 17.5733 12.1881C18.4141 12.5334 19.1171 13.1469 19.573 13.9331L23.188 11.8601C22.2704 10.2854 20.8605 9.05606 19.1755 8.36147C17.4905 7.66687 15.6239 7.54556 13.8632 8.01621C12.1024 8.48685 10.5453 9.52336 9.4316 10.966C8.31791 12.4087 7.70945 14.1776 7.69996 16.0001C7.69815 17.4453 8.07758 18.8654 8.79996 20.1171C9.53145 21.3814 10.5829 22.4308 11.8487 23.1598C13.1144 23.8887 14.5497 24.2716 16.0104 24.2699C17.471 24.2682 18.9054 23.8819 20.1694 23.1499C21.4334 22.418 22.4824 21.3661 23.211 20.1001L19.6 18.0201Z" fill="white"/>
<path d="M24.0761 15.5379H23.1501V14.6169H22.2251V15.5379H21.2991V16.4609H22.2251V17.3809H23.1501V16.4609H24.0761V15.5379Z" fill="white"/>
<path d="M27.549 15.5379H26.623V14.6169H25.697V15.5379H24.771V16.4609H25.697V17.3809H26.623V16.4609H27.549V15.5379Z" fill="white"/>
</svg>
