<svg width="32" height="32" viewBox="0 0 32 32" fill="none" xmlns="http://www.w3.org/2000/svg">
<g clip-path="url(#clip0_502_615)">
<path d="M27.2 0H4.8C2.14903 0 0 2.14903 0 4.8V27.2C0 29.851 2.14903 32 4.8 32H27.2C29.851 32 32 29.851 32 27.2V4.8C32 2.14903 29.851 0 27.2 0Z" fill="white"/>
<path d="M17.1249 14.6875C18.2499 16 16.8124 17.1875 16.8124 17.1875C16.8124 17.1875 19.7499 15.6875 18.3749 13.8125C16.9999 11.9375 16.1874 11.1875 21.3749 8.1875C21.3749 8.125 13.1874 10.1875 17.1249 14.6875ZM18.3749 3.3125C18.3749 3.3125 20.8749 5.8125 15.9999 9.5625C12.1249 12.625 15.1249 14.375 15.9999 16.375C13.7499 14.3125 12.0624 12.5625 13.1874 10.875C14.8749 8.375 19.3749 7.1875 18.3749 3.3125Z" fill="#F8981D"/>
<path d="M12.875 21.6875C12.875 21.6875 11.9375 22.1875 13.5 22.375C15.0625 22.5625 16.375 22.5625 18.4375 22.1875C18.8565 22.4326 19.2956 22.6417 19.75 22.8125C15.125 24.8125 9.1875 22.75 12.875 21.6875ZM12.3125 19.0625C12.3125 19.0625 11.3125 19.8125 12.875 20C14.4375 20.1875 16.5 20.25 19.25 19.6875C19.5354 19.9641 19.8762 20.1771 20.25 20.3125C14.5625 21.9375 8.25 20.4375 12.3125 19.0625ZM23.25 23.625C23.25 23.625 23.9375 24.1875 22.5 24.625C19.8125 25.4375 11.3125 25.6875 8.9375 24.6875C8.0625 24.3125 9.875 23.625 11 23.625C9.9375 23 4.875 24.9375 8.375 25.5C17.9375 27 25.75 24.75 23.25 23.625ZM13.3125 16.375C13.3125 16.375 9 17.375 11.75 17.75C12.9375 17.9375 15.3125 17.875 17.5 17.6875C19.6875 17.5 21.0625 17.1875 21.0625 17.1875C20.6941 17.3467 20.3388 17.5348 20 17.75C15.625 18.875 7.125 18.375 9.5625 17.1875C12 16 13.3125 16.375 13.3125 16.375ZM21.0625 20.6875C25.625 18.375 23.5 15.6875 21.5 16.5625C23.75 14.6875 27.8125 18.8125 20.9375 20.8125V20.6875M13.75 27C18.0625 27.25 24.625 26.875 24.75 24.8125C24.75 24.8125 24.4375 25.5625 21.1875 26.1875C17.9375 26.8125 13 26.8125 10.3125 26.375C10.375 26.375 10.9375 26.8125 13.75 27Z" fill="#5382A1"/>
</g>
<defs>
<clipPath id="clip0_502_615">
<rect width="32" height="32" fill="white"/>
</clipPath>
</defs>
</svg>
