<svg width="32" height="32" viewBox="0 0 32 32" fill="none" xmlns="http://www.w3.org/2000/svg">
<path d="M16 25.0929C7.161 25.0929 0 20.2969 0 14.3739C0 8.45789 7.161 3.66089 16 3.66089C24.839 3.66089 32 8.45789 32 14.3739C32 20.2969 24.839 25.0929 16 25.0929ZM18.448 7.84889C11.735 7.84889 6.287 11.1299 6.287 15.1769C6.287 19.2239 11.735 22.5049 18.448 22.5049C25.161 22.5049 30.125 20.2599 30.125 15.1769C30.125 10.0929 25.166 7.84889 18.448 7.84889ZM24.364 20.2599C24.891 20.4159 25.401 20.6089 25.901 20.8389C26.188 20.9789 26.448 21.1669 26.677 21.3909C26.817 21.5419 26.937 21.7139 27.03 21.9019L30.849 28.3389H24.677L21.792 22.9219C21.527 22.4489 21.208 22.0109 20.839 21.6149C20.651 21.4069 20.386 21.2819 20.104 21.2819H18.64V28.3339L13.183 28.3389V10.3179H24.146C24.146 10.3179 29.137 10.4069 29.137 15.1569C29.146 17.8499 27.058 20.0889 24.365 20.2609L24.364 20.2599ZM21.995 14.2239H18.688V17.2869H21.995C22.855 17.2979 23.552 16.5879 23.527 15.7299C23.574 14.8649 22.855 14.1619 21.995 14.2249V14.2239Z" fill="#3276C3"/>
</svg>
