<svg width="32" height="32" viewBox="0 0 32 32" fill="none" xmlns="http://www.w3.org/2000/svg">
<path d="M16.1709 18.6999C15.6899 18.9209 15.1629 19.2089 14.1079 19.7879C13.7079 20.0129 13.2899 20.2379 12.9009 20.4499C12.8739 20.4229 12.8459 20.3889 12.8189 20.3609C10.7319 18.1309 6.87188 16.5559 7.03588 13.5609C7.09688 12.4699 7.47188 9.60593 14.4489 6.12793C20.1909 3.29793 24.7599 4.08193 25.5489 5.82093C26.6829 8.29993 23.0999 12.9129 17.1699 13.5819C16.5136 13.715 15.8357 13.699 15.1865 13.5349C14.5372 13.3708 13.9331 13.0629 13.4189 12.6339C13.1049 12.2929 13.0579 12.2729 12.9419 12.3409C12.7509 12.4409 12.8739 12.7499 12.9419 12.9269C13.1681 13.3365 13.4741 13.6965 13.8418 13.9858C14.2096 14.275 14.6316 14.4876 15.0829 14.6109C17.4165 15.1153 19.8496 14.8743 22.0389 13.9219C25.6329 12.5309 28.4389 8.66393 27.6169 5.42193C26.7919 2.13493 21.3359 1.05093 16.1739 2.88493C12.9412 3.97432 9.95441 5.68923 7.38388 7.93193C4.53988 10.5919 4.08988 12.9039 4.27388 13.8719C4.93588 17.3089 9.67388 19.5459 11.5739 21.2029C11.4739 21.2579 11.3899 21.3029 11.3149 21.3459C10.3669 21.8169 6.75288 23.7059 5.85188 25.7039C4.82888 27.9679 6.01588 29.5909 6.79988 29.8089C7.98137 30.0919 9.22175 29.9989 10.3478 29.5428C11.4739 29.0867 12.4294 28.2904 13.0809 27.2649C13.6342 26.4146 13.9739 25.4432 14.0712 24.4334C14.1685 23.4236 14.0206 22.4053 13.6399 21.4649C13.8645 21.2858 14.104 21.1262 14.3559 20.9879C14.8399 20.7019 15.3009 20.4199 15.7099 20.2019C17.1103 19.546 18.6385 19.2082 20.1849 19.2129C23.4309 19.5949 24.0719 21.6199 23.9489 22.4729C23.8913 22.7756 23.7696 23.0624 23.592 23.314C23.4143 23.5657 23.1848 23.7764 22.9189 23.9319C22.6939 24.0749 22.6189 24.1229 22.6389 24.2249C22.6659 24.3749 22.7749 24.3679 22.9659 24.3409C23.4536 24.1868 23.8832 23.8887 24.1984 23.4859C24.5136 23.0831 24.6996 22.5944 24.7319 22.0839C24.8319 20.0839 22.9249 17.8899 19.5489 17.9099C18.538 17.9117 17.5372 18.1111 16.6029 18.4969C16.4529 18.5589 16.3072 18.6256 16.1659 18.6969L16.1709 18.6999ZM11.3459 26.5389C10.2679 27.7119 8.76788 28.1549 8.11988 27.7799C7.41988 27.3799 7.69688 25.6449 9.01988 24.4039C9.80345 23.6979 10.6504 23.0656 11.5499 22.5149C11.7069 22.4149 11.9389 22.2829 12.2179 22.1149C12.2659 22.0879 12.2929 22.0739 12.2929 22.0739L12.4569 21.9739C12.6928 22.765 12.7143 23.6046 12.5191 24.4068C12.3239 25.2089 11.919 25.9447 11.3459 26.5389Z" fill="#CD6799"/>
</svg>
